<?xml version="1.0" encoding="UTF-8"?>
<svg version="1.1" viewBox="0 0 45 33" xmlns="http://www.w3.org/2000/svg">
<title>Logo/Lettermark/White</title>
<desc>Created with Sketch.</desc>
<g fill="none" fill-rule="evenodd">
<rect width="45" height="33"/>
<path d="m43.697 7.113h-10.078l-1.2292 5.6335h9.2747l-1.3564 6.352h-9.2727l-2.8359 13.421h-7.4521l6.7295-31.756h17.53l-1.31 6.35zm-39.725 9.2727c-1.0133 4.8705-3.2981 14.44 3.6877 14.44 4.7413 0 6.8566-5.1632 7.8315-9.0587h2.7531c-1.0153 5.4195-5.0804 11.513-11.432 11.513-9.1899 0-6.901-10.795-5.4619-17.526 1.3968-6.5216 4.1923-15.754 12.617-15.754 5.7182 0 7.6216 4.5314 6.5619 9.9085h-2.7511c0.50865-3.7664-0.12514-7.4541-4.4002-7.4541-6.6931 0-8.5138 9.6562-9.4059 13.931z" fill="#fff"/>
</g>
</svg>
